<?xml version="1.0" encoding="UTF-8"?><svg id="Layer_2" xmlns="http://www.w3.org/2000/svg" viewBox="0 0 374.13 100.38"><defs><style>.cls-1{fill:none;stroke:#fff;stroke-miterlimit:10;}</style></defs><g id="Layer_1-2"><path d="M11,94.88c-1.82,0-3.52-.9-4.54-2.4-1.02-1.5-1.24-3.42-.57-5.11L36.66,8.99c.83-2.11,2.86-3.49,5.12-3.49h68.21c3.84,0,7.38.9,10.51,2.68,3.04,1.73,5.53,4.01,7.4,6.79,1.86,2.76,3.06,5.91,3.59,9.37.56,3.64.1,7.28-1.35,10.81l-15.71,40.09c-2.42,5.94-6.26,10.72-11.44,14.26-5.21,3.56-11.07,5.37-17.41,5.37H11ZM74.33,57.44c.56,0,.86-.15,1.08-.3.17-.11.37-.28.55-.74.02-.04,5.29-13.16,5.29-13.16.04-.12.04-.18.04-.18-.01-.02-.03-.05-.04-.07h0s-.04-.03-.1-.06h-12.02s-5.71,14.51-5.71,14.51h10.91Z"/><path d="M109.99,11c2.89,0,5.49.66,7.8,1.97,2.31,1.31,4.16,3.01,5.56,5.08,1.4,2.08,2.31,4.45,2.71,7.12.41,2.67.07,5.31-1.02,7.93l-15.73,40.14c-1.99,4.88-5.13,8.79-9.42,11.73-4.3,2.94-9.06,4.41-14.31,4.41H11L41.78,11h68.21M55.34,62.94h18.99c1.54,0,2.92-.41,4.14-1.22,1.22-.81,2.1-1.94,2.64-3.39l5.29-13.15c.36-.99.47-1.94.34-2.85-.14-.9-.45-1.72-.95-2.44-.5-.72-1.15-1.31-1.97-1.76-.81-.45-1.72-.68-2.71-.68h-15.73l-10.04,25.49M109.99,0H41.78c-4.52,0-8.59,2.77-10.24,6.98L.76,85.36c-1.33,3.39-.9,7.21,1.15,10.22,2.05,3.01,5.45,4.8,9.09,4.8h74.58c7.48,0,14.38-2.13,20.52-6.33,6.08-4.16,10.59-9.77,13.4-16.66.02-.05.04-.09.05-.14l15.7-40.06c1.82-4.46,2.39-9.06,1.68-13.69-.65-4.27-2.15-8.17-4.46-11.6-2.36-3.5-5.47-6.36-9.25-8.5-3.98-2.26-8.43-3.4-13.24-3.4h0ZM72.87,48.44h.36l-1.4,3.49h-.33l1.38-3.49h0Z"/><path d="M109.31,94.88c-1.82,0-3.52-.9-4.54-2.4-1.02-1.5-1.24-3.42-.57-5.11l30.78-78.38c.83-2.11,2.86-3.49,5.12-3.49h34.04c1.82,0,3.52.9,4.55,2.41,1.02,1.51,1.24,3.42.57,5.11l-30.92,78.38c-.83,2.1-2.86,3.48-5.12,3.48h-33.9Z"/><path d="M174.13,11l-30.92,78.38h-33.9l30.78-78.38h34.04M174.13,0h-34.04c-4.52,0-8.59,2.77-10.24,6.98l-30.78,78.38c-1.33,3.39-.9,7.21,1.15,10.22,2.05,3.01,5.45,4.8,9.09,4.8h33.9c4.52,0,8.58-2.76,10.23-6.96l30.92-78.38c1.34-3.39.91-7.22-1.14-10.23-2.05-3.01-5.45-4.81-9.09-4.81h0ZM174.13,22h0,0Z"/><path d="M150.81,94.88c-1.82,0-3.52-.9-4.54-2.4-1.02-1.5-1.24-3.42-.57-5.11l30.78-78.38c.83-2.11,2.86-3.49,5.12-3.49h68.21c3.84,0,7.38.9,10.51,2.68,3.04,1.73,5.53,4.01,7.4,6.79,1.86,2.76,3.06,5.91,3.59,9.37.56,3.64.1,7.28-1.35,10.81l-15.71,40.09c-2.42,5.94-6.26,10.72-11.44,14.26-5.21,3.56-11.07,5.37-17.41,5.37h-74.58ZM214.14,57.44c.56,0,.86-.15,1.08-.3.17-.11.37-.28.55-.74.02-.04,5.29-13.16,5.29-13.16.04-.12.04-.18.04-.18-.01-.02-.03-.05-.04-.07h0s-.04-.03-.1-.06h-12.02s-5.71,14.51-5.71,14.51h10.91Z"/><path d="M249.8,11c2.89,0,5.49.66,7.8,1.97,2.31,1.31,4.16,3.01,5.56,5.08,1.4,2.08,2.31,4.45,2.71,7.12.41,2.67.07,5.31-1.02,7.93l-15.73,40.14c-1.99,4.88-5.13,8.79-9.42,11.73-4.3,2.94-9.06,4.41-14.31,4.41h-74.58l30.78-78.38h68.21M195.15,62.94h18.99c1.54,0,2.92-.41,4.14-1.22,1.22-.81,2.1-1.94,2.64-3.39l5.29-13.15c.36-.99.47-1.94.34-2.85-.14-.9-.45-1.72-.95-2.44-.5-.72-1.15-1.31-1.97-1.76-.81-.45-1.72-.68-2.71-.68h-15.73l-10.04,25.49M249.8,0h-68.21c-4.52,0-8.59,2.77-10.24,6.98l-30.78,78.38c-1.33,3.39-.9,7.21,1.15,10.22,2.05,3.01,5.45,4.8,9.09,4.8h74.58c7.48,0,14.38-2.13,20.52-6.33,6.08-4.16,10.59-9.77,13.4-16.66.02-.05.04-.09.05-.14l15.7-40.06c1.82-4.46,2.39-9.06,1.68-13.69-.65-4.27-2.15-8.17-4.46-11.6-2.36-3.5-5.47-6.36-9.25-8.5-3.98-2.26-8.43-3.4-13.24-3.4h0ZM212.68,48.44h.36l-1.4,3.49h-.33l1.38-3.49h0Z"/><path d="M271.63,94.88c-3.74,0-7.24-.9-10.41-2.66-3.11-1.73-5.65-4.06-7.54-6.93-1.83-2.78-3.03-5.91-3.56-9.31-.56-3.6-.11-7.22,1.35-10.76l15.71-40.1c2.42-5.94,6.26-10.72,11.44-14.26,5.21-3.56,11.06-5.37,17.41-5.37h50.85c3.84,0,7.38.9,10.51,2.68,3.04,1.73,5.53,4.01,7.4,6.79,1.86,2.76,3.06,5.91,3.59,9.37.55,3.64.1,7.27-1.35,10.8l-4.59,11.88c-.82,2.12-2.86,3.52-5.13,3.52h-34.04c-1.82,0-3.53-.9-4.55-2.41-1.02-1.5-1.23-3.4-.57-5.08,0-.03-.02-.04-.03-.05,0,0,0,0,0,0,0,0-.04-.03-.1-.06l-10.75.02c-.47,0-.73.11-.97.29-.35.25-.56.5-.7.87l-5.14,13.12c-.03.07-.04.12-.05.16,0,.02.02.04.04.06.01,0,10.75,0,10.75,0,.56,0,.87-.15,1.09-.3.17-.11.37-.27.54-.74.01-.04.59-1.47.59-1.47.84-2.09,2.86-3.46,5.11-3.46h34.04c1.82,0,3.52.9,4.54,2.4,1.02,1.5,1.24,3.41.58,5.11l-6.37,16.27c-2.3,5.91-6.13,10.72-11.4,14.28-5.24,3.55-11.12,5.35-17.46,5.35h-50.85Z"/><path d="M346.9,11c2.89,0,5.49.66,7.8,1.97,2.31,1.31,4.16,3.01,5.56,5.08,1.4,2.08,2.31,4.45,2.71,7.12.41,2.67.07,5.31-1.02,7.93l-4.61,11.93h-34.04c.36-.9.47-1.81.34-2.71-.14-.9-.45-1.72-.95-2.44-.5-.72-1.15-1.31-1.97-1.76-.81-.45-1.72-.68-2.71-.68h-10.71c-1.54,0-2.92.43-4.14,1.29-1.22.86-2.1,1.97-2.64,3.32l-5.15,13.15c-.72,1.9-.54,3.66.54,5.29,1.08,1.63,2.62,2.44,4.61,2.44h10.71c1.54,0,2.92-.41,4.14-1.22,1.22-.81,2.1-1.94,2.64-3.39l.54-1.36h34.04l-6.37,16.27c-1.9,4.88-5.02,8.79-9.36,11.73-4.34,2.94-9.13,4.41-14.37,4.41h-50.85c-2.8,0-5.38-.66-7.73-1.97-2.35-1.31-4.23-3.03-5.63-5.15-1.4-2.12-2.31-4.5-2.71-7.12-.41-2.62-.07-5.24,1.02-7.87l15.73-40.14c1.99-4.88,5.13-8.79,9.42-11.73,4.29-2.94,9.06-4.41,14.31-4.41h50.85M346.9,0h-50.85c-7.48,0-14.38,2.13-20.52,6.33-6.09,4.16-10.6,9.77-13.4,16.66-.02.04-.04.09-.05.13l-15.7,40.06c-1.83,4.47-2.39,9.06-1.68,13.65.65,4.18,2.13,8.04,4.4,11.49,2.38,3.61,5.56,6.54,9.46,8.71,3.99,2.23,8.39,3.36,13.08,3.36h50.85c7.46,0,14.37-2.12,20.54-6.3,6.2-4.2,10.73-9.87,13.44-16.85l6.36-16.25c.84-2.16.98-4.49.43-6.68,1.93-1.23,3.47-3.07,4.33-5.3l4.57-11.83c1.81-4.45,2.38-9.04,1.67-13.66-.65-4.27-2.15-8.18-4.46-11.6-2.36-3.5-5.47-6.36-9.25-8.5-3.98-2.26-8.43-3.4-13.24-3.4h0ZM309.83,48.44h1.78c-1.16.94-2.13,2.13-2.83,3.49h-.31l1.37-3.49h0Z"/><path class="cls-1" d="M109.99,11c2.89,0,5.49.66,7.8,1.97,2.31,1.31,4.16,3.01,5.56,5.08,1.4,2.08,2.31,4.45,2.71,7.12.41,2.67.07,5.31-1.02,7.93l-15.73,40.14c-1.99,4.88-5.13,8.79-9.42,11.73-4.3,2.94-9.06,4.41-14.31,4.41H11L41.78,11h68.21ZM86.4,45.17c.36-.99.47-1.94.34-2.85-.14-.9-.45-1.72-.95-2.44-.5-.72-1.15-1.31-1.97-1.76-.81-.45-1.72-.68-2.71-.68h-15.73l-10.04,25.49h18.99c1.54,0,2.92-.41,4.14-1.22,1.22-.81,2.1-1.94,2.64-3.39l5.29-13.15Z"/><path class="cls-1" d="M174.14,11l-30.92,78.38h-33.9l30.78-78.38h34.04Z"/><path class="cls-1" d="M249.8,11c2.89,0,5.49.66,7.8,1.97,2.31,1.31,4.16,3.01,5.56,5.08,1.4,2.08,2.31,4.45,2.71,7.12.41,2.67.07,5.31-1.02,7.93l-15.73,40.14c-1.99,4.88-5.13,8.79-9.42,11.73-4.3,2.94-9.06,4.41-14.31,4.41h-74.58l30.78-78.38h68.21ZM226.21,45.17c.36-.99.47-1.94.34-2.85-.14-.9-.45-1.72-.95-2.44-.5-.72-1.15-1.31-1.97-1.76-.81-.45-1.72-.68-2.71-.68h-15.73l-10.04,25.49h18.99c1.54,0,2.92-.41,4.14-1.22,1.22-.81,2.1-1.94,2.64-3.39l5.29-13.15Z"/><path class="cls-1" d="M318.56,56.97h34.04l-6.37,16.27c-1.9,4.88-5.02,8.79-9.36,11.73-4.34,2.94-9.13,4.41-14.37,4.41h-50.85c-2.8,0-5.38-.66-7.73-1.97-2.35-1.31-4.23-3.03-5.63-5.15-1.4-2.12-2.31-4.5-2.71-7.12-.41-2.62-.07-5.24,1.02-7.87l15.73-40.14c1.99-4.88,5.13-8.79,9.42-11.73,4.29-2.94,9.06-4.41,14.31-4.41h50.85c2.89,0,5.49.66,7.8,1.97,2.31,1.31,4.16,3.01,5.56,5.08,1.4,2.08,2.31,4.45,2.71,7.12.41,2.67.07,5.31-1.02,7.93l-4.61,11.93h-34.04c.36-.9.47-1.81.34-2.71-.14-.9-.45-1.72-.95-2.44-.5-.72-1.15-1.31-1.97-1.76-.81-.45-1.72-.68-2.71-.68h-10.71c-1.54,0-2.92.43-4.14,1.29-1.22.86-2.1,1.97-2.64,3.32l-5.15,13.15c-.72,1.9-.54,3.66.54,5.29,1.08,1.63,2.62,2.44,4.61,2.44h10.71c1.54,0,2.92-.41,4.14-1.22,1.22-.81,2.1-1.94,2.64-3.39l.54-1.36Z"/></g></svg>