<?xml version="1.0" encoding="UTF-8"?><svg id="Layer_2" xmlns="http://www.w3.org/2000/svg" viewBox="0 0 1842.81 466.97"><defs><style>.cls-1{fill:#fff;}</style></defs><g id="Layer_1-2"><path class="cls-1" d="M862.68,121.77c-15.11,2.54-29.49,8.58-43.01,15.78-15.71,7.88-33.19,16.34-50.42,21.82-10.74,3.61-21.43,8.29-31.75,11.28-6.16,1.72-13.5,4.04-19.17,5.99-8.14,2.72-14.47,6.19-21.81,10.06-13.99,6.77-31.74,11.81-47.77,14.71-9.47,2.35-19.47,4.26-27.21,7.7-4.01,1.96-8.33,4.22-12.13,6.12-3.28,1.8-6.64,6-10.96,8.29-7.94,4.35-15.56,6.65-25.29,10.57-15.52,6.18-31.22,12.92-47.12,17.99-9.7,2.88-18.33,8.55-27.49,11.98-11.49,4.51-23.67,7.69-35.44,12.22-14.72,7.13-25.78,18.7-41.42,24.81-8.07,3.14-16.71,4.99-24.66,7.97-8.98,3.23-17.84,7.8-26.91,11.68-14.92,8.08-32.49,14.09-47.28,22.5-8.24,3.93-13.52,7.48-22.68,11.59-11.41,3.58-22.62,7.19-33.87,11.64-8.19,3.11-15.64,8.49-23.54,11.9-7.63,3.31-13.06,7.73-20.77,11.94-8.9,5.04-16.6,11.56-26.14,16.06-10.62,6.69-25.66,10.82-37.93,15.69-11.06,4.39-21.66,10.65-32.43,13.91-9.37,2.03-20.95-2.18-31-.16-2.68.31-3.82.66-4.04,1.34-.15.97.81,2.25,1.08,3.25.45,1.68-.27,3.09-2.72,5.14-3.09,2.52-9.13,5.42-15.47,6.87-8.08,1.84-16.45,4.13-23.16,8.88-5.3,4.58-12.2,5.66-19.32,5.69-11.06.19-23.72-2.64-29.28-12.88-4.82-9.33,2.46-19.41,8.76-26.93,4.78-5.52,10.45-10.14,16.41-14.34,7.68-5.35,13.53-10.44,19.46-14.75,8.65-6.27,12.66-11.65,24.42-18.31,3.7-2.05,7.56-3.92,11.45-5.72,15.67-7.95,33.9-12.65,49.69-18.12,5.17-1.76,10.19-4.95,15.17-7.5,4.64-2.37,11.15-4.86,17.48-7.51,22.13-10.28,47.32-16.04,55.82-42.11,6.96-23.44,17.56-48.14,30.71-68.67,9.23-15.06,17.57-29.38,29.24-43.06,15.04-18.75,31.4-37.57,45.86-56.64,9.17-12.48,8.83-27.82,21.55-36.79,5.78-4.08,10.05-6.72,16.63-12.26,9.96-8.41,20.51-20.31,30.21-29.99,11.63-11.89,26.26-26.84,34.19-36.16,17.25-20.94,34.25-20.7,50.21,3.56,25.06,38.99-5.9,73.64,28.73,73.58,78.43-4.38,157.18-7.69,235.75-10.83,13.31-.67,26.97-1.46,40.11-3.61,11.6-1.97,21.94-5.09,31.54-6,11.56-1.51,22.53-.74,32.97,4.33,8.95,4.16,16.89,9.12,23.24,16.73,10.69,12.48,10.36,25.71-8.21,28.76l-.28.06ZM17.21,454.78c-1.44.08-1.72,2.3-.22,2.59,1.71.24,2.3-2.17.55-2.57h-.34ZM63.99,454.95c.28-.34,4.72-3,5.48-2.51.06.88-4.98,2.6-5.4,2.51h-.08ZM67.34,385.7c-1.26,1.67.27,7.39,2.67,4.94,1.44-1.74-.13-7.19-2.49-5.19l-.18.25ZM73.69,390.72c-1.98.38-1.08,3.46.81,2.41,1.08-.62.57-2.34-.48-2.41h-.33ZM83.09,387.92c-1.57-1-7.28.7-4.96,2.99,1.86,1.46,7.55-.68,5.25-2.83l-.28-.16ZM99.69,377.65c1.37-1.28,3.7-6.46,1.56-7.68-1.55-.39-5.98,1.57-7.04,3.81-1.17,2.75,2.68,6.32,5.19,4.12l.28-.25ZM97.96,388.11c-1.97.34-1.3,3.46.67,2.41,1.1-.62.68-2.34-.34-2.41h-.33ZM108.62,414.51c-2.67-1.62-8.06-.03-9.05,2.82-.52,1.26-.17,2.39,1.06,2.65,2.04.62,9.44-2.87,8.16-5.3l-.17-.17ZM102.93,377.72c1.6.95,6.76-.13,5.33-2.67-.98-1.19-4.39-.89-5.7.59-.54.58-.67,1.44.09,1.91l.28.16ZM118.61,431.22c1.92.73,4.66,5.05,1.11,5.05-2.01.08-5.71-1.97-6.13-3.63-.39-2.41,3.07-2.47,4.64-1.6l.37.18ZM127.19,380.58c-1.7-1.11-10.85-.58-10.86,2.26.2,1.5,4.7,3.3,7.71,2.74,2.21-.11,5.57-2.78,3.37-4.85l-.22-.15ZM120.57,422.94c1.43-.18,1.67-2.53.06-2.6-1.65-.12-2.11,2.44-.39,2.61h.34ZM128.52,387.96c-1.52-.84-9.22-.34-8.34,2.39,1.32,1.59,6.65.93,8.26-.18.92-.46,1.52-1.52.37-2.07l-.28-.13ZM126.55,425.3c-1.67-.68-5.06-.11-5.58,1.9.07,3,8.76.84,5.88-1.74l-.3-.16ZM123.15,372.21c1.7-.34,1.28-2.95-.5-2.57-1.53.29-1.25,2.49.17,2.59h.33ZM126.88,377.59c1.52.84,9.22.34,8.34-2.39-1.32-1.59-6.65-.93-8.26.18-.92.46-1.52,1.51-.37,2.07l.28.13ZM128.66,420.34c2.2-.5,1.1-4.09-.88-2.47-.84.81-.37,2.4.58,2.47h.31ZM140.39,422.68c-2.11-1.26-5.64-.76-8.03-.09-3.68,1.1-5.37,4.54-2.55,5.23,1.97.81,11.83-2.58,10.72-5l-.14-.14ZM131.22,369.61c2.19-.53.87-4.09-1-2.47-.81.81-.26,2.4.69,2.47h.31ZM131.77,387.22c.53,2.91,4.51,3.16,6.4,1.46,1.58-1.29,2.22-2.8.94-3.34-1.91-.67-6.59-.65-7.32,1.61l-.02.28ZM140.61,390.72c-1.59.13-1.92,2.66-.07,2.61,1.53-.01,1.89-2.32.39-2.6h-.33ZM157.75,386.22c1.18-2.04-.07-4.17-.82-6.16-.96-2.35-1.96-5.07-3.83-6.68-1.06-.9-2.62-1.88-3.71-.52-1.57,1.74-4.9,7.02-4.86,11.54-.28,9.91,8.67,7.31,13.09,2.05l.14-.22ZM147.44,412.17c-1.98.38-1.08,3.47.81,2.41,1.07-.62.57-2.34-.48-2.41h-.33ZM150.29,406.94c-1.7.34-1.28,2.95.5,2.57,1.53-.29,1.25-2.49-.17-2.59h-.33ZM155.01,393.37c-1.8-.88-5.6-.22-5.68,2.09.42,2.01,4.9,1.32,5.84-.05.5-.54.8-1.36.09-1.87l-.25-.17ZM161.77,393.33c-2.2.5-1.1,4.09.88,2.47.84-.81.37-2.4-.58-2.47h-.31ZM169.7,361.24c-1.67-.69-4.96-.08-5.49,1.9-.04,2.96,8.61.91,5.79-1.74l-.29-.16ZM170.21,353.14c-1.58-.72-4.21-.13-5.28,1.28-.98,1.5.66,2.43,2.51,2.28,1.71-.04,4.76-1.78,3.05-3.4l-.27-.16ZM184.73,388.1c-1.89-.86-11.06-.56-11.37,2.14,2.27,2.06,8.27,1.04,10.95-.06.95-.39,1.99-1.34.68-1.97l-.25-.11ZM186.17,353.13c-1.71-.75-5.66.03-5.55,2.37.68,2.71,8.64.38,5.83-2.22l-.28-.15ZM184.06,380.07c1.44-.08,1.72-2.3.22-2.59-1.71-.24-2.3,2.17-.55,2.57h.34ZM184.77,358.83c-1.43.18-1.67,2.54-.06,2.6,1.66.12,2.11-2.44.39-2.62h-.34ZM188.49,390.72c-1.98.38-1.08,3.46.81,2.41,1.08-.62.57-2.34-.48-2.41h-.33ZM191.08,396.21c-1.58.09-1.9,2.7-.07,2.61,1.53-.01,1.89-2.32.39-2.6h-.33ZM192.93,356.2c-1.44.08-1.72,2.3-.22,2.58,1.71.24,2.3-2.17.55-2.57h-.34ZM199.25,369.34c1.01-1.38.78-9.61-2.06-8.31-1.57,1.25-1.26,7.04.02,8.58.5.82,1.4.93,1.89.01l.15-.28ZM200.21,372.16c-1.97.34-1.3,3.46.67,2.41,1.1-.62.68-2.34-.34-2.41h-.33ZM205.55,377.44c1.43-.18,1.67-2.53.06-2.6-1.66-.12-2.11,2.44-.39,2.61h.34ZM207.32,388.11c-1.98.38-1.08,3.47.81,2.41,1.08-.62.57-2.34-.48-2.41h-.33ZM217.77,370.72c-1.41-1.43-8.33,1.47-8.53,3.57,1.23,2.49,8.53-1.46,8.57-3.42l-.04-.16ZM222.18,379.84c-2-1.01-5.09.26-7.04,1.31-3.82,2.16-5.69,6.61-3.48,6.75,2.21.35,11.98-5.59,10.66-7.93l-.14-.13ZM249.06,366.9c-1.67.56-4.01,2.61-4.49,4.39.19,1.1,1.81.21,3-.72,1.08-.88,2.96-3.18,1.72-3.69h-.23ZM289.42,348.09c-1.44.08-1.72,2.3-.22,2.59,1.71.24,2.3-2.17.55-2.57h-.34ZM294.91,345.48c-1.44.08-1.72,2.3-.22,2.59,1.71.24,2.3-2.17.55-2.57h-.34ZM302.39,326.51c-1.56-.82-9.12-.35-8.32,2.4,1.29,1.66,6.41,1.08,8.08,0,.99-.47,1.84-1.62.52-2.27l-.29-.13ZM306.16,332.15c-1.98.38-1.08,3.46.81,2.41,1.08-.62.57-2.34-.48-2.41h-.33ZM313.77,147.96c-2.28,2.24-6.51-1.74-4.71-4.62,1.29-1.78,6.54,2.19,4.89,4.42l-.18.2ZM321.03,273.03c-1.29-1.81-7.96,1.8-7,5.54.16,1.5,1.4,2.93,2.95,2.46,2.17-1.03,4.65-5.47,4.16-7.81l-.11-.19ZM314.2,145.11c-.27-.73.55-2.01,1.21-2.33,1.1-.59,2.33,1.6,1.52,2.31-.48.46-1.97.48-2.59.16l-.14-.15ZM349.13,317.3c-2.23-1.64-9.93.39-14.03.92-5,.94-10.36,1.7-14.9,2.89-.51.19-1.11.3-.75.58,3.96.66,24.14.99,29.69-4.31v-.08ZM323.22,209.31c1.97-.34,1.3-3.46-.67-2.41-1.1.62-.68,2.34.34,2.41h.33ZM325.83,265.54c2.2-.5,1.1-4.09-.88-2.47-.84.81-.37,2.4.58,2.47h.31ZM328.71,206.7c1.97-.34,1.3-3.46-.67-2.41-1.1.62-.68,2.34.34,2.41h.33ZM331.26,265.54c2.25-.57.85-4.09-1.08-2.47-.85.81-.21,2.4.77,2.47h.31ZM699.41,122.27c-1.68-.87-14.63,1.39-20.27,1.31-12.57.68-22.67-.17-35.7,1.81-7.37,1.07-14.86.95-22.33,1.02-11.33.11-22.95,1.32-34.65,2.53-25.52,3.21-49.35,1.01-75.05,2.83-30.28,1.49-51.17,1.1-68.49,29.88-7.56,10.96-9.8,20.24-13.45,31.6-4.71,12.65-19.11,26.98-27.37,34.8-9.17,8.16,1.01-5.36,3.77-8.74,3.14-4.42,11.62-13.57,12.27-17.2.5-2.39-3.7-1.3-5.66-.76-3.57.9-7.24,2-10.82,3.27-13.25,4.09-26.23,13.87-37.83,22.77-2.37,1.72-4.73,3.43-6.97,5.27-6.88,5.63-9.06,10.26-14.32,14.9-2.99,2.75-4.56,4.74-5.83,7.71-.96,1.61-1.87,3.74-.26,5.46,4.86,5.29,15.84,1.13,22.38-.77,8.13-2.96,15.73-6.77,24.02-8.99,19.89-7.46,39.53-14.83,59.59-22.27,46.5-19.19,93.98-42.05,142.09-59.11,31.08-10.82,61.86-21.21,92.53-33.55,5.65-2.28,24.64-10.54,22.41-13.73l-.07-.04ZM345.69,185.26c1.58-.09,1.9-2.7.07-2.62-1.53.01-1.89,2.32-.39,2.6h.33ZM398.71,294.76c-1.7.34-1.28,2.95.5,2.57,1.53-.29,1.25-2.49-.17-2.59h-.33ZM407.73,204.31c.9-.85,3-.53,4.18-.43,1.77.09-.05,1.74-1.02,2.45-1.65,1.34-3.71.25-3.32-1.78l.16-.23ZM412.39,187.87c1.97-.34,1.3-3.46-.67-2.41-1.1.62-.68,2.34.34,2.41h.33ZM423,292.14c-1.97.34-1.3,3.46.67,2.41,1.1-.62.68-2.34-.34-2.41h-.33ZM431.14,289.26c-2.25.46-1.15,4.1.9,2.47.91-.8.43-2.39-.58-2.47h-.32ZM441.01,276.56c-.63-2.79-9.12-6.71-10.4-2.43-.59,2.52,1.52,6.79,3.47,7.08,1.92-.06,3.51-1.87,5.11-2.79.88-.63,1.65-1.12,1.8-1.69l.02-.16ZM455.74,222.58c-1.98.38-1.08,3.47.81,2.41,1.08-.62.57-2.34-.48-2.41h-.33ZM464.85,265.44c-1.64.55-3.73,2.51-4.48,4.15-.27,1.4,1.54.62,2.93-.48,1.08-.88,2.94-3.15,1.77-3.69h-.22ZM486.87,262.38c-1.5-.63-3.96-.13-5.08,1.11-1,1.17.04,2.25,1.79,2.36,1.82.31,5.69-1.52,3.59-3.32l-.29-.15ZM507.98,246.64c-1.97.34-1.3,3.46.67,2.41,1.1-.62.68-2.34-.34-2.41h-.33ZM534.98,238.53c-2.25.57-.85,4.09,1.08,2.47.85-.81.21-2.4-.77-2.47h-.31ZM551.65,228.08c-1.97.34-1.3,3.46.67,2.41,1.1-.62.68-2.34-.34-2.41h-.33ZM554,233.31c-1.43.18-1.67,2.54-.06,2.6,1.66.12,2.11-2.44.39-2.62h-.34ZM566.36,222.37c-1.68-.66-5.02-.1-5.54,1.9.07,2.24,4.85,1.79,5.86.42.66-.63.92-1.63-.02-2.17l-.3-.15ZM600.55,209.25c-1.43.18-1.67,2.53-.06,2.6,1.66.12,2.11-2.44.39-2.61h-.34ZM645.09,193.1c-1.62-.68-4.95-.11-5.34,1.9.12,2.05,4.57,1.68,5.61.43.69-.61.97-1.62.03-2.17l-.3-.16ZM673.82,185.19c-1.98.38-1.08,3.46.81,2.41,1.08-.62.57-2.34-.48-2.41h-.33ZM707.53,120.94c-1.57-1-7.28.7-4.96,2.99,1.86,1.46,7.55-.68,5.24-2.83l-.28-.16ZM726.4,169.03c-1.5-.63-3.96-.13-5.08,1.11-1,1.17.04,2.24,1.79,2.36,1.82.31,5.69-1.51,3.58-3.31l-.29-.15ZM731.06,161.13c-2.33.52-.81,4.1,1.05,2.47.81-.8.28-2.39-.73-2.47h-.32ZM790.71,142.57c-1.98.38-1.08,3.47.81,2.41,1.08-.62.57-2.34-.48-2.41h-.33Z"/><path class="cls-1" d="M925.77,184.62c6.29,13.88-5.49,29.88-11.14,42.8-6.97,15.6-15.49,31.25-26.31,44.19-9.41,11.3-17.53,24.1-26.18,35.47-9.59,12.85-18.91,25.7-29.6,38.03-7.35,8.07-16.08,14.93-23.66,21.34-7.02,5.97-12.54,10.54-22.57,13-9.55,2.5-21.83,2.19-29.45-3.94-22.69-19.55,4.09-57.71,18.31-75.53,31.38-38.61,72-70.83,105.33-107.96,5.99-6.83,13.05-15.28,21.14-17.74,8.89-2.63,19.49,2.18,23.98,10.08l.13.25ZM762.19,329.02c-1.41.24-1.31,2.58.17,2.6,1.73.07,1.75-2.47.15-2.62h-.32ZM815.77,344.95c-1.4.1-1.66,2.54-.19,2.85,1.69.27,2.1-2.45.51-2.83l-.32-.02ZM822.33,323.55c-1.75-.87-5.6-.24-5.51,2.09.86,2.73,7.95.63,5.76-1.92l-.25-.17ZM835.66,323.55c-1.75-.87-5.6-.24-5.5,2.09.86,2.73,7.95.63,5.76-1.92l-.25-.17ZM862.11,291.43c-1.6-1.02-7.15.73-4.74,2.99,1.89,1.45,7.5-.66,5.03-2.83l-.29-.16ZM1020.65,123.24c-4.81,1.22-9.66-.05-14.4.23-2.27.23-4.17,1.21-6.19,2.35-5.49,3.08-13.77,9.33-21.1,12.29-4.63,2.31-8.82,1.26-13.45,1.56-2.64.31-6.01,2.44-8.75,4.01-5.35,2.96-11.01,5.68-16.95,7.23-11.12,3-22.45,3.5-33.09-2.6-17.4-9.76-26.8-34.08-17.38-52.16,8.96-17.25,29.36-26.24,46.6-34.07,15.35-7.24,31.92-15.18,48.78-8.43,7.11,2.3,14.54,4.57,22.02,3.36,7.73-1.11,15.71-5.47,23.62-2.71,15.32,5.88,26.94,23.15,32.34,37.11,11.34,25.66-8.89,22.43-26.39,26.8-5.19,1.4-10.27,3.86-15.46,4.98l-.18.04ZM919.37,113.02c-.41.09-.69,1.12-.17,1.47.77.45,1.28-.83.42-1.47h-.25ZM923.72,145.03c-1.43-.75-4.1,1.62-1.51,2.03,1.36.09,2.45-1.34,1.76-1.87l-.25-.16ZM926.94,114.18c8.93.51,47.8-9.92,52.11-17.01.16-1.7-5.45-2.4-13.81-1.44-11.66,1.5-25.9,4.75-35.8,9.96-4.04,1.78-11.12,7.72-2.76,8.47l.26.02ZM935.7,123.53c-2.47-.53-6.49.65-7.98,2.66-.77.96-.83,1.81-.04,1.89,1.63-.02,3.1-1.13,4.6-1.95,1.06-.72,3.22-1.7,3.47-2.52l-.05-.08ZM929.05,113.02c-.41.09-.69,1.12-.17,1.47.77.45,1.28-.83.42-1.47h-.25ZM929.05,136.03c-.41.09-.69,1.12-.17,1.47.77.45,1.28-.83.42-1.47h-.25ZM933.64,142.32c-1.81-1.17-5.98,3.59-2.19,3.4,1.63-.09,3.36-1.83,2.41-3.21l-.21-.19ZM935.5,128.45c-.68.15-3.03,3.42-1.19,2.76.64-.3,2.03-2.15,1.38-2.77l-.19.02ZM948.73,115.94c-2.23-2.44-5.29-.35-8.13.54-2.45.83-4.98,2.49-5.45,5.2-.14,1.84,1.93,2.74,5.03,2.47,3.25-.23,9.6-4.77,8.64-8.06l-.1-.15ZM939.27,135.57c-.55-1.09.23-2.6-.82-3.62-2.47-.1-1.03,5.42.68,5.96.44.22,1.52.62,1.53-.15-.15-.66-.96-1.28-1.27-1.93l-.12-.26ZM940.28,108.58c.41.09.69,1.12.17,1.47-.77.45-1.28-.83-.42-1.47h.25ZM943.07,126.73c-1.43-.76-4.1,1.62-1.51,2.03,1.36.09,2.45-1.34,1.76-1.87l-.25-.16ZM943.69,123.74c-.41.09-.69,1.12-.17,1.47.77.45,1.28-.83.42-1.47h-.25ZM943.69,130.02c-.41.09-.69,1.12-.17,1.47.77.45,1.28-.83.42-1.47h-.25ZM946.04,128.45c-.41.09-.69,1.12-.17,1.47.77.45,1.28-.82.42-1.47h-.25ZM946.93,123.83c.93.88,2.72-.04,3.65-.66,1.53-1.08.52-1.85-.91-2.13-2.22-.54-3.79.79-2.9,2.57l.16.22ZM947.35,139.17c-.59.16-.63,1.59.13,1.57.75.02.71-1.4.12-1.57h-.25ZM957.32,136.16c-2.31-1.42-6.11.67-7.74,2.54-.59.69-.65,1.54.1,1.73,2.05.53,9.98-1.38,7.82-4.11l-.19-.16ZM949.7,125.31c-.59.16-.63,1.59.13,1.57.75.02.71-1.41.12-1.57h-.25ZM950.57,133.15c1.51.91,4.07-1.27,1.51-1.92-1.36-.23-2.45,1.13-1.76,1.74l.25.19ZM952.31,116.21c.59-.16.63-1.59-.13-1.57-.75-.02-.71,1.4-.12,1.57h.25ZM962.33,114.44c-3.29-6.91-8.43,4.6-9.56,7.84-.34.86-.65,1.7-.75,2.57-.4,2.68,2.58,4.26,5.23,2.04,3.35-2.68,6.4-8.15,5.17-12.2l-.09-.24ZM959.67,128.53c-.86.19-2.62,1-3.7,1.38-1.54.52-2.49,1.25-1.89,1.99.94.76,2.17.8,3.29.3,1.35-.59,2.31-1.8,2.69-3.04.12-.43.05-.63-.21-.64h-.18ZM959.38,110.15c-.59.16-.63,1.59.13,1.57.75.02.71-1.41.12-1.57h-.25ZM966.32,125.34c-1.94-1.29-5.88,3.84-2.19,3.64,1.65-.09,3.35-1.99,2.4-3.44l-.21-.2ZM963.22,115.51c-2.62,5.05,6.57,3.92,9.67,3.35,3.99-.49,3.25-3.26.59-4.6-3.11-1.71-7.72-1.68-10.1,1.04l-.17.21ZM978.16,104.42c-2.58-3.16-11.56,4.47-11.04,7.2,3.18,3.25,15.35-1.9,11.23-7.01l-.19-.19ZM978.08,121.2c.52-1.01.31-1.32-.64-1.25-2.87.63-8.85.03-9.98,2.54-1.05,2.26.5,5.51,3.37,4.64,2.4-.43,5.9-3.69,7.1-5.67l.15-.26ZM976.9,113.11c-.97-.58-4.02-.2-3.8,1.16.61,1.5,5.36.09,4.05-1l-.24-.16ZM976.26,132.69c-.27-2.15-3.07-2.03-3.12.19-.03,2.89,3.05,2.65,3.14.19l-.02-.38ZM978.13,126.73c-1.22-.74-3.59,1.27-1.66,1.97.91.32,2.62-.85,1.9-1.8l-.24-.18ZM977.93,117.79c.58-.16.63-1.59-.12-1.57-.75-.02-.71,1.41-.12,1.57h.25ZM997.38,119.51c-4.21.73-9.62,4.87-13.37,6.83-2.37,1.21-6.54,5.04-5.52,6.53,2.43,3.44,10.38-3.09,12.95-5.28,1.88-1.68,3.48-3.35,4.6-4.7,1.54-1.85,2.16-3.12,1.46-3.35l-.12-.03ZM1019.22,104.45c-.05-4.35-6.07-6.47-9.77-7.35-8.2-1.72-16.43,2.76-22.34,8.54-1.52,1.39-2.83,2.7-4.1,3.73-2.12,1.76-6.32,4.22-2.78,4.21,3.51-.32,7.36-1.74,10.96-2.4,8.32-2.11,22.98,1.79,28.02-6.62l.02-.1ZM980.81,120.81c.29-1.18.02-3.02-.79-3.31-1.23.09-.62,4.43.67,3.54l.11-.22ZM986.67,95.89c.34-1.93-6.09-4.44-6.2-2.21.51.93,1.6,1.39,2.61,1.85,1,.4,2.71,1.07,3.48.51l.1-.15ZM985.47,114.51c-1.28-.09-2.21,2.53-2.6,3.71-1.24,4.49,3.86,2.9,3.7-.15.03-1.1-.3-2.68-.96-3.45l-.14-.11ZM984.74,123.74c-.59.16-.63,1.59.13,1.57.75.02.71-1.41.12-1.57h-.25ZM989.33,115.54c-.12-.63-2.77-3.6-2.23-1.49.21.7,1.6,2.43,2.25,1.7l-.02-.21ZM989.96,119.35c.59-.16.63-1.59-.13-1.57-.75-.02-.71,1.4-.12,1.57h.25ZM991.27,94.77c.41-.09.69-1.12.17-1.47-.77-.45-1.28.82-.42,1.47h.25ZM991.85,116.39c1.44.72,3.71-1.76,1.32-2.04-1.19-.03-2.17,1.33-1.56,1.87l.25.17ZM992.93,94.93c1.43.75,4.1-1.62,1.51-2.03-1.36-.09-2.45,1.34-1.76,1.87l.25.16ZM999.64,68.89c.41-.09.69-1.12.17-1.47-.77-.45-1.28.83-.42,1.47h.25ZM1003.63,111.69c-1.84-.86-6.6.07-3.55,2.5,1.46.92,4.17-.83,3.71-2.36l-.15-.14ZM1011.16,98.28c1.78,1.92,5.34.93,7.78.55,2.86-.1,7.03-1.88,4.92-5.3-3.04-3.79-9.55-2.09-12.03,1.5-1.03,1.38-1.26,2.53-.77,3.13l.1.13ZM1014.94,120.75c.06-1.77-2.31-2.94-2.81-.62-.64,2.72,2.3,3.62,2.79,1l.02-.38ZM1015.08,114.59c-.41.09-.69,1.12-.17,1.47.77.45,1.28-.82.42-1.47h-.25ZM1016.38,99.42c-.59.16-.63,1.59.13,1.57.75.02.71-1.41.12-1.57h-.25ZM1016.38,107.01c-.59.16-.63,1.59.13,1.57.75.02.71-1.41.12-1.57h-.25ZM1021.78,113.09c-1.46-.9-4.1,1.29-1.51,1.85,1.36.15,2.45-1.09,1.76-1.67l-.25-.18ZM1022.05,122.53c-.11.28-.75.96-1.14.5-.6-1.01.6-.66,1.08-.64l.06.14ZM1026.7,113.1c.38-.73.26-2.88-.58-2.9-1.12.43-1.84,2.08-1.35,3.09.35.81,1.34.75,1.78.1l.16-.29ZM1025.85,107.24c1.46.67,3.68-1.7,1.29-2.06-1.06-.13-2.45,1.04-1.57,1.91l.28.16ZM1028.12,97.77c.23-1.15-.66-2.97-1.37-3.94-1.27-1.58-1.56-.14-1.09,1.21.5,1.76,1.96,3.46,2.36,2.9l.09-.17ZM1028.73,101.09c2.06.58,4.65-2.55,4.81-4.57.1-2.36-1.5-1.78-2.75.03-.83,1.08-1.87,2.28-2.28,3.52-.04.33-.16.37.08.88l.14.13ZM1030.77,110.16c-1.53.61-1.97,3.33-.59,3.65,1.57.54,2.18-2.99.84-3.65h-.24ZM1032.77,106.29c.28,1.21,3.54,1.53,3.76.33-.12-1.99-3.12-2.98-3.78-.63l.02.3ZM1040.11,100.99c-.85-1.04-4.36-2.51-4.3-.2.08,1.06,1.42,1.96,2.76,1.83,1.31-.08,2.14-.75,1.71-1.41l-.17-.23ZM1039.86,106.84c-1.44-.71-3.71,1.76-1.32,2.05,1.19.03,2.17-1.33,1.56-1.87l-.25-.17ZM1041.56,101.22c1.43.66,3.61-1.69,1.3-2.06-1.32-.11-2.26,1.37-1.56,1.91l.26.16ZM1042.01,104.19c-.59.32.59.9,2.44.99,1.88.12,3.64-.37,3.42-.77-1.32-.89-4.23-.64-5.67-.31l-.2.09ZM1047.1,106.89c-2.13-1.2-5.19,2.13-4.85,4.55.25,2.01,1.36,2.39,2.56.09.63-1.1,1.38-2.22,2.08-3.27.24-.43.52-.84.32-1.24l-.11-.12ZM1043.31,90.33c.41-.09.69-1.12.17-1.47-.77-.45-1.28.83-.42,1.47h.25ZM1045.66,97.91c.41-.09.69-1.12.17-1.47-.77-.45-1.28.83-.42,1.47h.25ZM1048.01,82.48c.41-.08.69-.94.17-1.23-.79-.36-1.27.69-.42,1.23h.25ZM1048.54,107.22c-.5,1.27.75,3.12,1.62,4.1,2.38,2.61,4.6-3.95,2.18-4.56-1.03-.39-2.84-.48-3.66.26l-.15.2ZM1054.03,91.9c.41-.09.69-1.12.17-1.47-.77-.45-1.28.83-.42,1.47h.25ZM1054.03,102.62c.41-.09.69-1.12.17-1.47-.77-.45-1.28.82-.42,1.47h.25ZM1054.03,111.77c.41-.09.69-1.12.17-1.47-.77-.45-1.28.83-.42,1.47h.25ZM1060.04,108.63c.41-.09.69-1.12.17-1.47-.77-.45-1.28.83-.42,1.47h.25Z"/><path class="cls-1" d="M936.67,403.84c-12.07,1.3-28.13,1.07-37.45-4.83-2-1.18-3.65-4.09-3.15-6.02.56-1.74,1.95-1.59,3.46-1.15,5.37,1.15,11.44,4.85,16.53,5.51,2.12.25,4.3.02,5.95-1.32,2.41-1.98,5.82-6.44,8.44-9.5,4.3-5.9,11.85-10.37,18.06-14.84,5.79-4.73,9.14-10.47,15.33-14.64,6.89-4.05,14.56-6.86,21.35-10.31,1.64-.76,3.42-1.41,5.04-2.2,3.89-1.76,5.52-4.64,7.33-8.15,3.1-4.69,3.59-10.62,8.16-14.35,4.86-4.43,12.67-5.17,14.93-9.94.52-1.46.32-3.3-1.3-3.85-3.4-1.39-13.12-.14-17.76,2.37-5.18,2.83-11.44,7.63-16.49,8.41-4.04-.06-9-2.05-12.92-.46-3.01,1.87-2.74,6.72-.94,9.42,1.59,2.53,5.54,4.3,7.03,6.49,1.81,3.81-5.22,4.6-8.61,6.63-5.16,2.55-11.33,4.49-16.23,7.42-5.66,3.36-10.84,7.92-17.18,10.22-7.52,2.83-18.27,2.88-25.24,4.89-3.46,1.12-6.64,3.01-9.2,5.54-3.32,3.42-6.21,9.56-11.63,9.21-7.05-.57-10.14-11.17-10.87-18.2-1.63-13.23,5.1-21.12,15.13-28.35,12.36-8.69,18.23-23.27,27.6-34.68,19.89-22.87,40.09-47.8,59.85-71.33,9.49-11.42,17.42-21.42,25.36-30.61,5.05-5.85,10.83-11.82,12.08-19.33,1.4-8.03-1.36-16.89.74-25.24,1.45-4.94,4.44-12.24,10.01-10.93,1.07.65.01.8.2.47,3.21-3.5,6.99-3.63,12.67-4.66,23.76-2.03,42.36-16.56,58.71-33.37,11.01-11.54,23.28-22.31,35.05-32.94,5.37-4.91,11.21-10.16,17.72-13.16,12.71-6.71,26.44,4.14,28.39,17.03.93,6.22-1.37,12.37-4.67,17.61-5.42,8.82-15.18,17.12-15.73,23.04-.55,8.04,10.99,8.27,16.69,7.33,9.86-1.64-1.83-5.3,3.27-6.79,10.51-2.02,30.03,3.83,40.95,4.58,5.86.8,10.04-2.85,15.06-4.38,3.43-1.05,9.76-.52,14.06-.15,8.04.81,16.4-.25,24.68-.66,11.29-.38,24.09-2.78,36.24-1.96,22.12.36,46.03,4.3,67.33,2.04,9.77-.87,19.74-1.79,29.49-.85,14.28,1.14,29.31,8.52,38.65,18.91,5.09,6.47,9.5,15.08,3.05,20.15-4.57,3.46-13.32,4.54-20.46,6.3-8.27,1.96-16.59,5.26-25.6,9-26.58,10.97-54.44,25.39-80.67,36.01-27.91,10.51-57.22,19.12-81.77,36-30.16,18.19-62.78,35.17-94.61,50.39-13.99,6.44-25.85,14.6-39.38,20.78-18.96,8.15-36.61,22.06-54.41,33.13-9.24,5.89-18.96,11.2-29.37,15.85-8.82,3.76-16.44,5.99-23.48,10.54-3.14,2.04-6.35,4.03-9.44,6.11-5.02,3.37-9.52,7.28-15.79,8.81-6.18,1.56-14.72,1.76-19.44,3.08-2.48.88-5.49.94-7.54,2.46-.96,1.29,3.93,3.88,3.83,6.25-.1,1-.57,1.43-1.32,2.06-2.29,1.65-7.24,3.97-15.45,5.04l-.36.05ZM901.55,369.31c-1.64.07-1.87,2.58-.07,2.62,1.57.11,1.83-2.2.39-2.58l-.33-.04ZM905.77,383.19c-1.52-.35-1.27-3,.39-2.85,1.7.1,1.52,2.77-.08,2.88l-.31-.02ZM921.11,370.81c.08,1.12-2.55,2.97-3.61,4.05-1.32,1.03-2.54,2.67-4.18,2.88-1.43-.19-1.06-5.02,1.76-6.36,1.63-.77,4.37-1.38,5.96-.68l.07.11ZM929.51,368.74c-1.21-1.91,7.64-5,8.58-3.36.49,1.35-5.81,4.71-8.42,3.48l-.16-.13ZM941.37,390.74c-1.54-2.19-11.01-.24-8.87,4.29,2.06,2.97,9.91-.91,9.01-4.09l-.14-.2ZM948.65,362.09c.21.94-1.53,2.17-2.31,2.95-1.4,1.3-2.63,2.2-3.11,1.69-.71-1.1-.25-2.52.11-3.63.7-1.92,3.66-2.09,5.22-1.18l.1.16ZM949.97,351.44c2.07-.74,5.72-.21,5.02,2.39-.54,1.87-3.93,3.12-6.14,2.12-2.36-.95-1.63-3.64.72-4.36l.4-.14ZM948.9,343.43c-1.28.09-1.59,2.16-.26,2.54,1.87.61,2.25-2.09.58-2.52l-.33-.03ZM957.17,332.54c1.64,2.96,12.28,5.55,14.82,3.01.97-.91,1.17-1.41,1.38-2.55.18-3.54-2.36-5.02-6.62-4.57-2.77.45-8.86,1.11-9.61,3.93l.03.18ZM958.82,371.23c.86.27,3.98-.1,5.53-.13,1.24-.06,5.91-.19,5.11-1.21-2.03-1.66-8.24.17-10.63,1.29v.05ZM975.08,356.28c2.3-.35,1.08-4.02-.9-2.55-.91.73-.43,2.37.58,2.52l.32.02ZM976.62,259.93c-1.56.09-1.44,2.53.11,2.62,1.59-.04,1.71-2.24.22-2.59l-.33-.03ZM980.02,326.93c1.52.35,1.27,3-.39,2.85-1.7-.1-1.52-2.77.08-2.88l.31.02ZM981.15,364.82c1.58,1.24,7.52.06,5.16-2.44-1.81-1.59-7.25-.03-5.4,2.26l.24.18ZM981.91,354.14c1.59,1.09,6.18.68,5.64-1.84-1.07-2.47-7.73-1.12-5.88,1.65l.24.19ZM984.18,303.32c-1.44-.04-1.91,2.16-.42,2.57,1.68.37,2.45-2.01.75-2.53l-.33-.04ZM996.04,301.32c-1.58-.85-5.13-.55-5.52,1.57.43,2.98,8.44,1.32,5.8-1.39l-.28-.18ZM999.46,366.38c.34.95-1.29,2.07-2.07,2.05-1.28-.09-.94-2.73.27-2.66.55-.08,1.29.08,1.63.4l.16.21ZM1021.63,322.78c1.07-1.54.04-2.98-1.73-2.86-4.84.45-9.81,4.73-14.47,7.27-.79.51-1.82,1.16-2.3,1.68-.19.21-.2.35-.03.42,2.43.06,5.1-.94,7.81-1.47,3.57-.78,8.79-2.08,10.58-4.8l.15-.22ZM1003.08,358.54c1.64,1.26,7.63-.27,5.2-2.67-1.72-1.44-7.4.12-5.45,2.49l.25.18ZM1005.38,304.9c-1.44.1-1.56,2.46-.09,2.62,1.68.2,2.03-2.37.41-2.61h-.32ZM1011.91,289.3c-1.61.19-1.48,2.88.26,2.62,1.5-.14,1.46-2.38.06-2.61h-.32ZM1019.84,340.54c-1.44-.74-3.88-.41-5.03.78-1.7,1.85,1.38,2.79,2.76,2.49,1.57,0,4.26-1.75,2.55-3.09l-.28-.18ZM1028.42,290.22c-1.18.45-2.44.79-3.65.46-1.62-.22-6.21-4.1-6.43-1.78.11,3.17,4.01,6.62,7.95,6.43,2.6-.17,5.45-1.88,6.14-4.42.4-2.2-1.57-1.64-3.74-.8l-.27.1ZM1022.71,258c1.53-.09,1.58-2.47.06-2.62-1.7-.21-2.07,2.37-.39,2.61h.34ZM1024.83,311.83c-1.57.5-2.19-2.78-.27-2.86,1,.13,1.1,2.07.49,2.69l-.22.17ZM1026.77,234.29c-1.53.09-1.58,2.47-.06,2.62,1.7.21,2.07-2.37.39-2.61h-.34ZM1037.43,250.27c.6-2.47-2.08-5.19-4.55-4.01-1.08.16-8.79,7.21-5.74,7.57,3.01.17,8.57-.49,10.18-3.27l.1-.3ZM1030.3,263.97c1.5-.11,1.6-2.47.06-2.62-1.72-.22-2.06,2.34-.39,2.61h.34ZM1032.62,232.03c1.64-.07,1.87-2.58.07-2.62-1.57-.12-1.83,2.2-.39,2.58l.33.04ZM1037.61,320.75c.34-.89-1.23-2.33-1.9-3.2-1.22-1.47-2.33-2.52-2.92-2.11-.91.91-.71,2.37-.57,3.5.31,2.12,3.53,2.65,5.27,1.97l.12-.15ZM1035.96,291.13c-1.64.07-1.87,2.58-.07,2.62,1.57.12,1.83-2.2.39-2.58l-.33-.04ZM1037.72,246.05c1.64,5.7,31.79-5.65,37.1-7.44,51.76-15.61,105.49-42.24,155.97-57.2,14.5-5.01,60.81-14.54,65.61-28.24-.8-4.54-14.86-.98-19.02-1.61-13.77.82-28.77.28-42.78,2.01-17.82,1.29-35.77,5.11-53.77,5.91-40.19,2.02-67.24.23-96.18,33.42-10.95,11.29-21.48,24.82-32.28,35.69-5.39,5.2-10.68,9.59-13.04,13.22-.87,1.28-1.66,2.69-1.62,4.14v.1ZM1045.51,334.42c-.31-5.24-7.93-3.72-6.36,1.28,1.1,3.19,6,2.24,6.33-.93l.03-.36ZM1041.12,243.04c-.29-1.31,1.31-2.07,2.19-2.14,1.19.06.46,1.57-.2,2.08-.54.47-1.2.45-1.83.26l-.16-.2ZM1044.24,238.17c1.13-.59,3.49.16,1.67,1.48-1.97,2.03-2.68.82-1.89-1.26l.21-.22ZM1045.66,302.6c-1.52.11-1.48,2.53.11,2.61,1.62-.02,1.68-2.23.22-2.59l-.33-.02ZM1047.72,313.31c-1.39-.01-1.9,2.39-.45,2.82,1.66.41,2.33-2.27.77-2.78l-.32-.04ZM1053.21,311.22c-1.41-.02-1.93,2.16-.42,2.56,1.74.49,2.39-2.03.75-2.52l-.33-.04ZM1056.68,148.44c1.41.04,1.89-2.14.45-2.57-1.59-.38-2.38,2.04-.77,2.53l.32.04ZM1057.15,292.65c-1.44.16-1.58,2.71-.09,2.88,1.76.2,1.96-2.61.41-2.87h-.32ZM1057.4,172.58c-1.44-.04-1.91,2.16-.42,2.57,1.68.37,2.45-2,.75-2.53l-.33-.04ZM1071.88,288.61c.6-1.33-1.67-3.49-2.66-4.78-1.81-2.16-3.45-3.73-4.31-3.17-.33.09-.69.87-.69.95-.47,1.51-.45,3.56.06,4.99.72,2.31,5.26,3.34,7.48,2.17l.12-.15ZM1065.57,240.09c1.64,1.26,7.63-.27,5.2-2.67-1.72-1.44-7.4.12-5.45,2.49l.25.18ZM1074.15,280.67c-1.61.19-1.48,2.89.26,2.62,1.5-.14,1.46-2.38.06-2.61h-.32ZM1075.85,275.43c2.9,1.34,8.38.56,11.52-.66,1.36-.44,3.59-1.94,1.37-2.59-.98-.81-14.88.39-13.05,3.13l.17.12ZM1082.98,313.31c-1.72.45-4.15,2.39-4.75,4.16.11,1.31,1.93.53,3.3-.51,1.12-.9,2.85-2.98,1.67-3.64h-.22ZM1091.81,282.59c-1.92-1.78-10.37-2.08-9.55,1.91,1.24,2.83,7.5,3.17,9.66,1.32,1.03-.79,1.26-2.13.15-3.03l-.26-.21ZM1086.99,187.92c1.56-.09,1.44-2.53-.11-2.62-1.59.04-1.71,2.24-.22,2.59l.33.03ZM1087.25,254.86c1.56-.09,1.44-2.53-.11-2.62-1.59.04-1.71,2.24-.22,2.59l.33.03ZM1097.73,255.66c1.44.04,1.91-2.16.42-2.57-1.68-.37-2.45,2-.75,2.53l.33.04ZM1099.26,266.51c-1.52.11-1.48,2.53.11,2.61,1.62-.02,1.68-2.23.22-2.59l-.33-.02ZM1103.16,288.21c-1.38-.02-1.91,2.16-.45,2.56,1.6.38,2.37-2.01.77-2.52l-.32-.04ZM1112.74,283.73c-1.09,1.59-.68,6.18,1.84,5.65,2.47-1.07,1.12-7.73-1.65-5.88l-.19.24ZM1118.68,227.84c1.71-.22,1.5-2.86-.3-2.62-1.53.14-1.47,2.4-.04,2.61h.34ZM1119.11,254.47c-1.39-.01-1.9,2.39-.45,2.82,1.66.41,2.33-2.27.77-2.78l-.32-.04ZM1125.27,228.16c1.38-1.65-.04-7.57-2.44-5.16-1.44,1.64-.15,7.23,2.25,5.4l.19-.24ZM1128.1,289.81c-1.44-.74-3.88-.41-5.03.78-1.7,1.85,1.39,2.79,2.76,2.49,1.57,0,4.26-1.75,2.55-3.09l-.28-.18ZM1126.47,161.51c1.56-.09,1.44-2.53-.11-2.62-1.59.04-1.71,2.24-.22,2.59l.33.03ZM1133.06,158.99c.89.33,2.33-1.23,3.21-1.9,1.47-1.22,2.52-2.32,2.11-2.87-.93-.87-2.38-.63-3.5-.49-2.11.31-2.66,3.42-1.97,5.15l.15.12ZM1136.13,274.65c-1.28.09-1.59,2.16-.26,2.54,1.87.61,2.25-2.09.58-2.52l-.33-.03ZM1156,275.89c-2.63-1.16-7.31.18-9.43,2.14-.8.72-1.94,2.14-.56,2.64,2.75.61,12.39-2.69,10.21-4.64l-.22-.14ZM1149.28,141.81c1.71-.22,1.5-2.86-.3-2.62-1.53.14-1.47,2.4-.04,2.61h.34ZM1149.51,243.58c1.38.02,1.91-2.16.45-2.56-1.6-.38-2.37,2.01-.77,2.52l.32.04ZM1150.03,131.19c1.44.03,1.91-2.16.42-2.57-1.68-.37-2.45,2-.75,2.53l.33.04ZM1149.39,152.7c-1.26,1.64.27,7.63,2.67,5.2,1.44-1.72-.12-7.4-2.49-5.45l-.18.25ZM1156.08,158.38c1.53-.09,1.58-2.47.06-2.62-1.7-.21-2.07,2.37-.39,2.61h.34ZM1165.54,156.63c1.47.96,9.19,1,8.52-1.8-1.2-1.7-6.57-1.42-8.26-.41-.95.4-1.64,1.41-.53,2.06l.27.16ZM1184.26,155.07c1.56-1.86-2.69-5.16-4.96-4.49-1.4.18-3.33,1.42-2.73,2.97,1.11,1.9,5.61,2.5,7.49,1.66l.19-.14ZM1202.51,127.21c1.23-2.45-2.43-10.14-3.83-8.02-.69,1.55,1.58,9.45,3.71,8.2l.12-.18ZM1213.99,117.19c1.86,2.04-3.62,4.16-5.53,2.36-1.97-2.52,3.67-3.71,5.29-2.54l.24.18ZM1216.69,136.14c1.56-.09,1.44-2.53-.11-2.62-1.59.04-1.71,2.24-.22,2.59l.33.03ZM1275.48,154.06c1.03-.5,3.13-.14,2.28,1.42-.28.61-.8,1.18-1.32,1.15-.93,0-1.65-1.64-1.15-2.39l.19-.18ZM1277.12,148.87c1.39,0,1.91-2.2.45-2.56-1.65-.51-2.32,2.02-.77,2.53l.32.04ZM1296.79,157.87c-.13,3.97,3.54,2.17,5.58,1.04,4.4-2.28,9.04-5.02,8.27-8.8-.37-1.56-1.74-2.87-3.4-3-4.88-.1-10.01,5.9-10.43,10.44l-.02.32ZM1314.25,154.36c1.64-.07,1.87-2.58.07-2.62-1.57-.12-1.84,2.2-.39,2.58l.33.04Z"/><path class="cls-1" d="M1290.64,306.02c5.8-15.31,16.71-30.45,26.38-44.42,21.34-30.3,56.22-46.17,89.88-58.47,88.41-32.21,187.27-57.47,275.75-80.22,34.7-8.43,83.16-18.78,115.41-28.61,4.93-1.54,9.73-3.31,14.28-5.35,8.01-3.47,23.44-12.15,28.33-5.66,7.93,12.03-7.98,45.44-18.29,55.47-17.16,17.99-45.18,21.98-68.28,28.38-23.04,5.52-44.45,10.83-67.95,16.14-18.97,4.18-37.75,8.34-56.17,13.89-19.25,5.24-37.69,9.54-56.84,15.84-26.1,9.33-55.85,17.45-81.53,27.33-15.5,5.9-34.5,13.31-50.78,19.49-48.72,20.83,13.13,20.6,31.46,20.83,14.72.09,29.14.79,42.48,3.98,11.41,4.27,22.33,8.64,35.02,10.24,8.11,1.15,16.65,2.03,24.8,2.81,10.12,1.85,20.04,3.96,30.22,2.3,5.54-.57,11.07-1.97,16.38-2.26,2.52.82,5.24,2.6,8.24,2.13,11.75-.78,20.79-1.3,34.95,1.09,11.2,1.88,22.87,4.51,34.02,6.05,6.57.9,12.62,1.78,18.96,2.53,7.06.68,18.71,2.2,20.26,8.7,2.26,13.55-23.58,20.59-34.12,22.72-22.29,3.7-44.16,5.95-66.34,6.9-3.28.1-6.38.14-9.58.18-11.94-.02-24.99,2.44-36.31,3.88-4.79.67-8.74-.33-13.16-.33-15.37,1.26-31.94,1.29-47.3,3.59-6.87,1.16-16.58,4.08-22.8,4.17-3.21.14-4.45-.39-2.71-3.02.87-1.48,2.07-3.49-.43-4.03-3.53-.65-6.86-.09-10.61.68-1.67.29-14.4,3.65-10.28,1.02,3.32-2.22,7.54-5,10.03-8.17.14-.44-.34-.37-.71-.34-2.76.33-12.73,3.1-14.82,2.49-.4-.78.96-1.96,1.44-2.82.8-1.32,3.51-4.26,1.32-5.33-4.25-.97-11.29.52-15.78-1.19-8.42-3.48,6.43-16.38,6.92-19.46.45-.91.1-1.68-.85-1.65-11.94,3.24-25.65,13.27-37.4,18.13-3.67,1.77-8.74,4.29-10.8,6.07-4.85,4.74-5.99,12.03-12.75,15.72-6.14,4.62-37.8,14.9-40.79,8.42.06-1.1.62-1.82,1.4-2.9,1.81-2.31,4.2-4.79,6.45-6.74,1.74-1.49,3.17-2.61,3.97-3.53,1.67-1.75.95-3.55-1.35-3.29-7.31,1.29-15.71,8.62-23.65,10.15-5.57,1.34-10.16-.37-15.33-1.28-4.15-.83-7.6-.38-11.81-.8-4.52-.89-7.06-4.59-11.56-5.93-5.39-1.79-9.36-3.85-14.2-7.86-6.62-5.33-11.6-13.45-14.42-21.32-1.96-5.35-1.2-9.6,1.22-16.07l.1-.27ZM1319.12,339.59c1.05.15,3.26-1.51,2.95-2.54-.93-1.23-4.09,1.97-3.15,2.45l.2.09ZM1345.86,324.97c1.79-.44,12.18-8.92,9.5-10.65-4.06.16-10.37,6.49-11.62,9.37-.75,1.75.43,2.02,1.81,1.42l.31-.13ZM1357.97,352.24c-1.14-.23-3.05,1.47-3.03,2.5.63,1.81,4.15-1.82,3.21-2.39l-.18-.11ZM1365.81,343.99c-.19-3.39-10.45.64-10.78,3.01-.49,1.74,3.38,2.58,6.86.78,1.48-.73,3.36-2.05,3.87-3.54l.05-.25ZM1362.88,349.18c-.87,1.32-.29,2.74,1.47,2.75,2.2.27,6.15-2.96,5.82-5.02-1.13-2.1-5.91.74-7.09,1.99l-.21.27ZM1362.87,329.45c.03.5,2.16.24,5.94-1.05,7.31-2.55,16.89-6.62,23.97-10.4,1.3-.68,7.18-4,3.31-4.46-2.2-.09-7.03,1.44-12.29,3.82-7.03,3.13-17.98,8.83-20.93,12.03v.06ZM1380.48,325.47c-2.01.34-9.48,10.56-5.57,11.35,2.2.07,6.56-4.85,7.14-8.39.26-1.2.37-3.39-1.34-3.03l-.23.08ZM1395.1,346.99c-1.14-.17-3.05,1.49-3.04,2.53.63,1.78,4.16-2.01,3.21-2.44l-.18-.1ZM1399.89,336.28c-.52-2.18-5.71-.79-6.15,1.03-.61,3.4,6.08,1.52,6.17-.76v-.26ZM1400.58,333.57c3.8.18,8.54-3.65,11.78-6.35,2.23-2.01,5.14-3.74,6.5-5.97,0-.17-.15-.24-.48-.23-2.35.48-14.49,4.42-18.8,7.46-2.33,1.57-2.83,4.92.69,5.08h.3ZM1418.66,328.24c-5.91,1.81-15.86,8-18.9,13.33-1.46,2.45-2.24,4.59-.35,6.3,2.15,1.58,5.14,1.43,6.93-.16,2.46-1.93,5-7.35,9.34-10.87,2.65-2.39,15.13-12.33,3.34-8.71l-.36.12ZM1399.4,323.63c1.05.15,3.26-1.51,2.95-2.53-.93-1.23-4.09,1.96-3.15,2.45l.2.09ZM1410.99,321.3c1.98-.43,3.99-2.11,4.91-3.92,1.25-3.99-6.42-.67-7.1,1.06-1.11,1.63.02,3.18,1.8,2.92l.38-.06ZM1416.66,307.42c1.05.15,3.26-1.51,2.95-2.53-.93-1.23-4.09,1.96-3.15,2.45l.2.09ZM1463.4,341.11c2.44.35,7.69.59,7.88,2.67.03.7-.32,1.37-.78,2-1.49,2.03-5.07,4.49-10.09,6.64-8.87,3.67-21.22,8.01-30.15,8.54-6.31.45-9.24-.53-7.87-5.35,1.04-3.65,3.96-7.24,6.31-10.3,2.34-2.89,3.83-5.22,6.6-6.36,3.21-1.05,6.57,2.57,10.05,3.12,5.7.69,12.01-1.59,17.79-.99l.24.02ZM1434.78,318.07c3.3-1.74,8.07-4.4,10.15-7.6.04-.42-.4-.39-.77-.36-2.29.2-9.64,4.17-12.11,6.69-2.72,2.69.34,2.41,2.35,1.43l.38-.17ZM1444.79,322.71c-1.13-.19-3.04,1.57-3.04,2.56.63,1.67,4.15-1.87,3.21-2.45l-.18-.1ZM1449.75,334.36c.08-2.43,6.91-4.01,6.15-.52-.6,1.79-5.36,2.98-6.13.78l-.02-.26ZM1462.83,332.88c-1.05-.16-3.34,1.49-2.96,2.53,1.01,1.24,4.28-1.85,3.18-2.45l-.22-.09ZM1470.28,324.82c-2.51,1.07-8.18,4.44-3.62,5.54,2.12.3,4.63-.26,6.89-.68,6.13-1.32,14.57-2.99,20.46-4.73,2.51-.68,12.44-3.83,4.34-4.68-8.46-1.05-20.14.86-27.71,4.38l-.37.17ZM1475.38,331.06c-1.14-.23-3.06,1.47-3.03,2.5.63,1.81,4.15-1.82,3.21-2.39l-.18-.11ZM1481.61,330.27c-1.53-.45-4.96,3.22-1.88,2.7,1.35-.39,2.7-2.21,2.08-2.6l-.2-.1ZM1517.09,315.84c-.25-2.09-9.2-6.48-8.54-2.27.52,1.88,4.79,4.16,7.03,3.82.74-.08,1.73-.39,1.57-1.3l-.06-.25ZM1509.39,342.68c-.66,2.02,2.06,1.95,3.47,1.69,4.67-.69,12.46-6.02,13.63-8.6,1.46-4.88-17.15,4.44-17.01,6.71l-.09.2ZM1534.67,334.96c-2.62.92-4.54,1.74-6.79,3.02-2.05,1.29-4.46,2.74-4.94,5.02-.43,2.99,14.04.46,18.25-.42,6.44-1.61,22.34-3.65,23.97-9.38.04-2.05-2.14-2.09-4.27-2.39-8.01-.72-18.04,1.33-25.82,4.01l-.4.14ZM1529.17,283.33c.74.55-1.77,3.59-3.15,2.67-.18-1.26,1.84-2.91,2.97-2.77l.18.1ZM1534.68,325.15c-1.07-.26-8.94,2.84-7.5,3.94,2.16.31,5.01-1.37,6.71-2.59.78-.62,1.13-1.11.91-1.29l-.12-.06ZM1530.9,318.91c1.14.23,3.05-1.47,3.03-2.5-.63-1.81-4.15,1.82-3.21,2.39l.18.11ZM1545.57,283.91c-.35,2.58-11.35,4.33-12.31,1.78-.2-1.75,10.13-5.55,12.31-1.97v.19ZM1536.9,317.92c1.11.3,3.24-1.32,3.14-2.37-.76-1.54-4.19,1.72-3.32,2.25l.18.12ZM1543.92,343.3c-1.12-.26-3.11,1.32-3.06,2.35.57,1.45,4.21-1.16,3.26-2.25l-.2-.1ZM1552.7,283.55c.67.96-1.91,3.18-3.01,2.62-.25-.35-.1-.67.05-1.02.62-.81,1.76-1.77,2.77-1.68l.2.09ZM1568.39,283.54c.65.93-2.22,3.67-3.15,2.67-.16-1.35,1.76-2.85,2.97-2.76l.18.1ZM1577.19,344.54c1.14.23,3.06-1.47,3.03-2.5-.63-1.81-4.15,1.82-3.21,2.39l.18.11ZM1599.73,301.16c-.56-.57.2-1.73.46-2.48,1.16-2.79,5.16-7.6,6.3-7.49,1.64.99-5.31,9.9-6.64,9.98h-.12Z"/></g></svg>