<?xml version="1.0" encoding="UTF-8"?><svg id="Layer_2" xmlns="http://www.w3.org/2000/svg" viewBox="0 0 354.6 80.38"><defs><style>.cls-1{fill:none;stroke:#fff;stroke-miterlimit:10;stroke-width:2px;}</style></defs><g id="Layer_1-2"><path class="cls-1" d="M100.46,1c2.89,0,5.49.66,7.8,1.97,2.31,1.31,4.16,3.01,5.56,5.08,1.4,2.08,2.31,4.45,2.71,7.12.41,2.67.07,5.31-1.02,7.93l-15.73,40.14c-1.99,4.88-5.13,8.79-9.42,11.73-4.3,2.94-9.06,4.41-14.31,4.41H1.47L32.25,1h68.21ZM76.86,35.17c.36-.99.47-1.94.34-2.85-.14-.9-.45-1.72-.95-2.44-.5-.72-1.15-1.31-1.97-1.76-.81-.45-1.72-.68-2.71-.68h-15.73l-10.04,25.49h18.99c1.54,0,2.92-.41,4.14-1.22,1.22-.81,2.1-1.94,2.64-3.39l5.29-13.15Z"/><path class="cls-1" d="M164.6,1l-30.92,78.38h-33.9L130.56,1h34.04Z"/><path class="cls-1" d="M240.27,1c2.89,0,5.49.66,7.8,1.97,2.31,1.31,4.16,3.01,5.56,5.08,1.4,2.08,2.31,4.45,2.71,7.12.41,2.67.07,5.31-1.02,7.93l-15.73,40.14c-1.99,4.88-5.13,8.79-9.42,11.73-4.3,2.94-9.06,4.41-14.31,4.41h-74.58L172.06,1h68.21ZM216.67,35.17c.36-.99.47-1.94.34-2.85-.14-.9-.45-1.72-.95-2.44-.5-.72-1.15-1.31-1.97-1.76-.81-.45-1.72-.68-2.71-.68h-15.73l-10.04,25.49h18.99c1.54,0,2.92-.41,4.14-1.22,1.22-.81,2.1-1.94,2.64-3.39l5.29-13.15Z"/><path class="cls-1" d="M309.02,46.97h34.04l-6.37,16.27c-1.9,4.88-5.02,8.79-9.36,11.73-4.34,2.94-9.13,4.41-14.37,4.41h-50.85c-2.8,0-5.38-.66-7.73-1.97-2.35-1.31-4.23-3.03-5.63-5.15-1.4-2.12-2.31-4.5-2.71-7.12-.41-2.62-.07-5.24,1.02-7.87l15.73-40.14c1.99-4.88,5.13-8.79,9.42-11.73,4.29-2.94,9.06-4.41,14.31-4.41h50.85c2.89,0,5.49.66,7.8,1.97,2.31,1.31,4.16,3.01,5.56,5.08,1.4,2.08,2.31,4.45,2.71,7.12.41,2.67.07,5.31-1.02,7.93l-4.61,11.93h-34.04c.36-.9.47-1.81.34-2.71-.14-.9-.45-1.72-.95-2.44-.5-.72-1.15-1.31-1.97-1.76-.81-.45-1.72-.68-2.71-.68h-10.71c-1.54,0-2.92.43-4.14,1.29-1.22.86-2.1,1.97-2.64,3.32l-5.15,13.15c-.72,1.9-.54,3.66.54,5.29,1.08,1.63,2.62,2.44,4.61,2.44h10.71c1.54,0,2.92-.41,4.14-1.22,1.22-.81,2.1-1.94,2.64-3.39l.54-1.36Z"/></g></svg>